#N canvas 114 147 452 666 10;
#N canvas 751 237 843 534 adsr 0;
#X obj 101 116 cnv 15 438 110 empty empty empty 20 12 0 14 -154034
-66577 0;
#X obj 294 142 hsl 116 15 10 1000 1 0 \$0-cutoff \$0-cutoff-r cutoff
2 8 0 10 -257985 -1 -1 0 1;
#X obj 294 164 hsl 116 15 1 100 1 0 \$0-resonance \$0-resonance-r resonance
2 8 0 10 -257985 -1 -1 0 1;
#X obj 294 186 hsl 116 15 0.01 1 1 0 \$0-env2filter \$0-env2filter-r
envelope->filter 2 8 0 10 -257985 -1 -1 0 1;
#X obj 108 120 hsl 116 15 1 127 0 0 \$0-velocity \$0-velocity-r velocity
2 8 0 10 -257985 -1 -1 0 1;
#X obj 108 140 hsl 116 15 1 10000 1 0 \$0-attack \$0-attack-r attack
2 8 0 10 -257985 -1 -1 0 1;
#X obj 108 162 hsl 116 15 1 1000 1 0 \$0-decay \$0-decay-r decay 2
8 0 10 -257985 -1 -1 0 1;
#X obj 108 184 hsl 116 15 0.01 1 1 0 \$0-sustain \$0-sustain-r sustain
2 8 0 10 -257985 -1 -1 0 1;
#X obj 108 206 hsl 116 15 1 30000 1 0 \$0-realease \$0-realease-r realease
2 8 0 10 -257985 -1 -1 0 1;
#X obj 232 261 pack f f f;
#X obj 11 241 bng 15 250 50 0 empty empty empty 17 7 0 10 -262144 -1
-1;
#X obj 11 67 t b f;
#X obj 11 117 t b f;
#X obj 11 137 t b f;
#X obj 11 157 t b f;
#X obj 11 177 t b f;
#X obj 288 -84 t b f;
#X obj 288 -64 t b f;
#X obj 288 -44 t b f;
#X obj 276 74 bng 15 250 50 0 empty empty empty 17 7 0 10 -262144 -1
-1;
#X obj 98 284 s envellope;
#X obj 232 284 s filter;
#X obj 96 262 pack f f f f f f;
#X obj 294 120 hsl 116 15 1 30000 1 0 \$0-duration \$0-duration-r duration
2 8 0 10 -257985 -1 -1 0 1;
#X obj 11 97 t b f;
#X obj 232 120 nbx 5 14 -1e+37 1e+37 0 0 empty empty empty 0 -8 0 10
-262144 -1 -1 0 256;
#X obj 232 163 nbx 5 14 -1e+37 1e+37 0 0 empty empty empty 0 -8 0 10
-262144 -1 -1 0 256;
#X obj 232 184 nbx 5 14 -1e+37 1e+37 0 0 empty empty empty 0 -8 0 10
-262144 -1 -1 0 256;
#X obj 232 206 nbx 5 14 -1e+37 1e+37 0 0 empty empty empty 0 -8 0 10
-262144 -1 -1 0 256;
#X obj 231 142 nbx 5 14 -1e+37 1e+37 0 0 empty empty empty 0 -8 0 10
-262144 -1 -1 0 256;
#X obj 421 12 t b f;
#X obj 430 227 bng 15 250 50 0 empty empty empty 17 7 0 10 -262144
-1 -1;
#X obj 421 283 s pan;
#X obj 421 261 pack f f;
#X obj 421 32 t b f;
#X obj 419 120 nbx 5 14 -1e+37 1e+37 0 0 empty empty empty 0 -8 0 10
-262144 -1 -1 0 256;
#X obj 419 163 nbx 5 14 -1e+37 1e+37 0 0 empty empty empty 0 -8 0 10
-262144 -1 -1 0 256;
#X obj 419 184 nbx 5 14 -1e+37 1e+37 0 0 empty empty empty 0 -8 0 10
-262144 -1 -1 0 256;
#X obj 418 142 nbx 5 14 -1e+37 1e+37 0 0 empty empty empty 0 -8 0 10
-262144 -1 -1 0 256;
#X obj 236 31 unpack f f f;
#X obj 106 31 unpack f f f f f f;
#X obj 292 234 s bangpan;
#X obj 292 205 bng 15 250 50 0 empty empty random-pan 17 7 0 10 -262144
-1 -1;
#X obj 107 6 r envellope-preset;
#X obj 237 6 r filter-preset;
#X connect 1 0 16 0;
#X connect 1 0 38 0;
#X connect 2 0 17 0;
#X connect 2 0 36 0;
#X connect 3 0 18 0;
#X connect 3 0 37 0;
#X connect 4 0 11 0;
#X connect 4 0 25 0;
#X connect 5 0 12 0;
#X connect 5 0 29 0;
#X connect 6 0 13 0;
#X connect 6 0 26 0;
#X connect 7 0 14 0;
#X connect 7 0 27 0;
#X connect 8 0 15 0;
#X connect 8 0 28 0;
#X connect 9 0 21 0;
#X connect 10 0 22 0;
#X connect 11 0 10 0;
#X connect 11 1 22 0;
#X connect 12 0 10 0;
#X connect 12 1 22 2;
#X connect 13 0 10 0;
#X connect 13 1 22 3;
#X connect 14 0 10 0;
#X connect 14 1 22 4;
#X connect 15 0 10 0;
#X connect 15 1 22 5;
#X connect 16 0 19 0;
#X connect 16 1 9 0;
#X connect 17 0 19 0;
#X connect 17 1 9 1;
#X connect 18 0 19 0;
#X connect 18 1 9 2;
#X connect 19 0 9 0;
#X connect 22 0 20 0;
#X connect 23 0 24 0;
#X connect 23 0 35 0;
#X connect 24 0 10 0;
#X connect 24 1 22 1;
#X connect 30 0 31 0;
#X connect 30 1 33 0;
#X connect 31 0 33 0;
#X connect 33 0 32 0;
#X connect 34 0 31 0;
#X connect 34 1 33 1;
#X connect 39 0 1 0;
#X connect 39 1 2 0;
#X connect 39 2 3 0;
#X connect 40 0 4 0;
#X connect 40 1 5 0;
#X connect 40 2 6 0;
#X connect 40 3 7 0;
#X connect 40 4 8 0;
#X connect 40 5 23 0;
#X connect 42 0 41 0;
#X connect 43 0 40 0;
#X connect 44 0 39 0;
#X coords 0 -1 1 1 440 127 1 100 100;
#X restore 5 66 pd adsr;
#N canvas 747 204 960 703 sequencer 0;
#X obj 101 116 cnv 15 438 373 empty empty empty 20 12 0 14 -154034
-66577 0;
#X obj -270 299 float;
#X obj -205 299 + 1;
#X floatatom -270 345 5 0 0 0 - - -, f 5;
#X obj -270 224 tgl 15 0 empty empty empty 17 7 0 10 -262144 -1 -1
0 127;
#X obj 110 146 hradio 15 1 0 16 empty empty empty 0 -8 0 10 -262144
-258113 -1 8;
#X obj -270 387 mod 8;
#X obj -270 258 metro 100;
#X obj 82 824 f;
#X obj 121 824 f;
#X obj 157 823 f;
#X obj 193 823 f;
#X obj 231 824 f;
#X obj 269 824 f;
#X obj 304 824 f;
#X obj 340 824 f;
#X floatatom 114 666 5 0 0 0 - - -, f 5;
#X floatatom 153 666 5 0 0 0 - - -, f 5;
#X floatatom 193 666 5 0 0 0 - - -, f 5;
#X floatatom 232 666 5 0 0 0 - - -, f 5;
#X floatatom 272 666 5 0 0 0 - - -, f 5;
#X floatatom 311 666 5 0 0 0 - - -, f 5;
#X floatatom 349 666 5 0 0 0 - - -, f 5;
#X floatatom 389 666 5 0 0 0 - - -, f 5;
#X obj 336 895 s sequence;
#X obj 110 182 vradio 15 1 0 20 empty empty empty 0 -8 0 10 -191407
-257985 -1 4;
#X obj 125 182 vradio 15 1 0 20 empty empty empty 0 -8 0 10 -228856
-257985 -1 1;
#X obj 140 182 vradio 15 1 0 20 empty empty empty 0 -8 0 10 -228856
-257985 -1 2;
#X obj 155 182 vradio 15 1 0 20 empty empty empty 0 -8 0 10 -228856
-257985 -1 3;
#X obj 170 182 vradio 15 1 0 20 empty empty empty 0 -8 0 10 -128992
-257985 -1 4;
#X obj 185 182 vradio 15 1 0 20 empty empty empty 0 -8 0 10 -228856
-257985 -1 5;
#X obj 200 182 vradio 15 1 0 20 empty empty empty 0 -8 0 10 -228856
-257985 -1 6;
#X obj 215 182 vradio 15 1 0 20 empty empty empty 0 -8 0 10 -228856
-257985 -1 7;
#X obj 230 182 vradio 15 1 0 20 empty empty empty 0 -8 0 10 -191407
-257985 -1 8;
#X obj 245 182 vradio 15 1 0 20 empty empty empty 0 -8 0 10 -228856
-257985 -1 9;
#X obj 260 182 vradio 15 1 0 20 empty empty empty 0 -8 0 10 -228856
-257985 -1 11;
#X obj 275 182 vradio 15 1 0 20 empty empty empty 0 -8 0 10 -228856
-257985 -1 12;
#X obj 290 182 vradio 15 1 0 20 empty empty empty 0 -8 0 10 -128992
-257985 -1 14;
#X obj 305 182 vradio 15 1 0 20 empty empty empty 0 -8 0 10 -228856
-257985 -1 14;
#X obj 320 182 vradio 15 1 0 20 empty empty empty 0 -8 0 10 -228856
-257985 -1 15;
#X obj 335 182 vradio 15 1 0 20 empty empty empty 0 -8 0 10 -228856
-257985 -1 15;
#X obj 387 824 f;
#X obj 426 824 f;
#X obj 462 823 f;
#X obj 498 823 f;
#X obj 536 824 f;
#X obj 574 824 f;
#X obj 609 824 f;
#X obj 645 824 f;
#X floatatom 434 666 5 0 0 0 - - -, f 5;
#X floatatom 473 666 5 0 0 0 - - -, f 5;
#X floatatom 513 666 5 0 0 0 - - -, f 5;
#X floatatom 552 666 5 0 0 0 - - -, f 5;
#X floatatom 592 666 5 0 0 0 - - -, f 5;
#X floatatom 631 666 5 0 0 0 - - -, f 5;
#X floatatom 669 666 5 0 0 0 - - -, f 5;
#X floatatom 709 666 5 0 0 0 - - -, f 5;
#X obj 71 697 select 0 1 2 3 4 5 6 7 8 9 10 11 12 13 14 15;
#X obj 110 164 hradio 15 1 0 16 empty empty empty 0 -8 0 10 -162280
-262144 -1 9;
#X obj -229 387 + 1;
#X obj 113 127 hsl 235 15 0 2000 0 0 empty empty speed(ms) 2 8 0 10
-257985 -1 -1 0 1;
#X obj -349 344 random 22;
#X obj -349 576 s france;
#X obj -330 596 s espagne;
#X obj -311 616 s maroc;
#X obj -293 636 s mauritanie;
#X obj -275 656 s senegal;
#X obj -256 676 s mexique;
#X obj -238 696 s usa;
#X obj -219 716 s indonesie;
#X obj -201 736 s malaysie;
#X obj -164 776 s birmanie;
#X obj -183 756 s thailande;
#X obj -146 796 s inde;
#X obj -349 547 route 1 2 3 4 5 6 7 8 9 10 11 12 13 14 15 16 17 18
19 20 21 22 23;
#X obj -131 816 s malaysie;
#X obj -113 836 s nepal;
#X obj -95 856 s inde;
#X obj -76 876 s georgie;
#X obj -58 896 s turquie;
#X obj -39 916 s bulgarie;
#X obj -21 936 s serbie;
#X obj -3 956 s hongrie;
#X obj 7 976 s autriche;
#X obj 25 996 s allemagne;
#X obj 43 1017 s france;
#X obj -349 526 + 1;
#X obj -349 505 r sequence;
#X obj -349 304 spigot;
#X obj -270 367 spigot;
#X obj 354 130 vradio 15 1 0 3 empty empty empty 0 -8 0 10 -262144
-1 -1 0;
#X obj -270 72 change;
#X obj -270 169 sel 0;
#X obj -316 139 tgl 15 0 empty empty empty 17 7 0 10 -262144 -1 -1
0 1;
#X msg -338 113 1;
#X msg -308 113 0;
#X obj -313 90 sel 1;
#X msg -270 192 0;
#X msg -240 192 1;
#X obj -237 149 tgl 15 0 empty empty empty 17 7 0 10 -262144 -1 -1
0 1;
#X msg -270 123 1;
#X msg -240 123 0;
#X obj -270 100 sel 2;
#X obj -349 326 bng 15 250 50 0 empty empty empty 17 7 0 10 -262144
-1 -1;
#X text 376 128 OFF;
#X text 376 143 random;
#X text 376 158 Sequencer;
#X obj 475 127 nbx 5 14 -1e+37 1e+37 0 0 empty empty empty 0 -8 0 10
-262144 -1 -1 0 256;
#X obj 475 142 nbx 5 14 -1e+37 1e+37 0 0 empty empty empty 0 -8 0 10
-262144 -1 -1 0 256;
#X obj 440 126 bng 30 250 50 0 empty empty empty 17 7 0 10 -191407
-262144 -1;
#X obj 353 182 cnv 15 175 300 empty empty empty 20 12 0 14 -203904
-66577 0;
#X text 351 196 rtveradio - espagne;
#X text 350 180 franceinfo - france;
#X text 351 210 aswat - maroc;
#X text 351 225 radiojar - mauritanie;
#X text 351 255 unamradio - mexique;
#X text 350 241 radiothiossane - senegal;
#X text 351 270 radioboss - USA;
#X text 351 285 indonesie - indonesie;
#X text 351 300 malaisie - malaisie;
#X text 352 329 prdonline - inde;
#X text 352 314 prdonline - birmanie;
#X text 351 344 radionepal.gov - nepal;
#X text 352 359 bgradio128 - georgie;
#X text 352 374 bgradio128 - turquie;
#X text 352 390 185.13.37.111:8000 - turquie;
#X text 352 406 185.13.37.111:8000 - bulgarie;
#X text 352 422 bgradio128 - serbie;
#X text 352 436 bgradio128 - hongrie;
#X text 352 451 bgradio128 - autriche;
#X text 352 466 bgradio128 - allemagne;
#X connect 1 0 2 0;
#X connect 1 0 3 0;
#X connect 2 0 1 1;
#X connect 3 0 89 0;
#X connect 3 0 88 0;
#X connect 3 0 109 0;
#X connect 4 0 7 0;
#X connect 5 0 57 0;
#X connect 5 0 108 0;
#X connect 6 0 5 0;
#X connect 7 0 1 0;
#X connect 8 0 24 0;
#X connect 9 0 24 0;
#X connect 10 0 24 0;
#X connect 11 0 24 0;
#X connect 12 0 24 0;
#X connect 13 0 24 0;
#X connect 14 0 24 0;
#X connect 15 0 24 0;
#X connect 16 0 8 1;
#X connect 17 0 9 1;
#X connect 18 0 10 1;
#X connect 19 0 11 1;
#X connect 20 0 12 1;
#X connect 21 0 13 1;
#X connect 22 0 14 1;
#X connect 23 0 15 1;
#X connect 25 0 16 0;
#X connect 26 0 17 0;
#X connect 27 0 18 0;
#X connect 28 0 19 0;
#X connect 29 0 20 0;
#X connect 30 0 21 0;
#X connect 31 0 22 0;
#X connect 32 0 23 0;
#X connect 33 0 49 0;
#X connect 34 0 50 0;
#X connect 35 0 51 0;
#X connect 36 0 52 0;
#X connect 37 0 53 0;
#X connect 38 0 54 0;
#X connect 39 0 55 0;
#X connect 40 0 56 0;
#X connect 41 0 24 0;
#X connect 42 0 24 0;
#X connect 43 0 24 0;
#X connect 44 0 24 0;
#X connect 45 0 24 0;
#X connect 46 0 24 0;
#X connect 47 0 24 0;
#X connect 48 0 24 0;
#X connect 49 0 41 1;
#X connect 50 0 42 1;
#X connect 51 0 43 1;
#X connect 52 0 44 1;
#X connect 53 0 45 1;
#X connect 54 0 46 1;
#X connect 55 0 47 1;
#X connect 56 0 48 1;
#X connect 57 0 8 0;
#X connect 57 1 9 0;
#X connect 57 2 10 0;
#X connect 57 3 11 0;
#X connect 57 4 12 0;
#X connect 57 5 13 0;
#X connect 57 6 14 0;
#X connect 57 7 15 0;
#X connect 57 8 41 0;
#X connect 57 9 42 0;
#X connect 57 10 43 0;
#X connect 57 11 44 0;
#X connect 57 12 45 0;
#X connect 57 13 46 0;
#X connect 57 14 47 0;
#X connect 57 15 48 0;
#X connect 58 0 59 0;
#X connect 59 0 6 1;
#X connect 60 0 7 1;
#X connect 61 0 86 0;
#X connect 61 0 107 0;
#X connect 74 0 62 0;
#X connect 74 1 63 0;
#X connect 74 2 64 0;
#X connect 74 3 65 0;
#X connect 74 4 66 0;
#X connect 74 5 67 0;
#X connect 74 6 68 0;
#X connect 74 7 69 0;
#X connect 74 8 70 0;
#X connect 74 9 72 0;
#X connect 74 10 71 0;
#X connect 74 11 73 0;
#X connect 74 12 75 0;
#X connect 74 13 76 0;
#X connect 74 14 77 0;
#X connect 74 15 78 0;
#X connect 74 16 79 0;
#X connect 74 17 80 0;
#X connect 74 18 81 0;
#X connect 74 19 82 0;
#X connect 74 20 83 0;
#X connect 74 21 84 0;
#X connect 74 22 85 0;
#X connect 86 0 74 0;
#X connect 87 0 86 0;
#X connect 88 0 103 0;
#X connect 89 0 6 0;
#X connect 90 0 91 0;
#X connect 91 0 92 0;
#X connect 91 0 96 0;
#X connect 91 0 102 0;
#X connect 92 0 97 0;
#X connect 92 1 98 0;
#X connect 93 0 88 1;
#X connect 94 0 93 0;
#X connect 95 0 93 0;
#X connect 96 0 94 0;
#X connect 96 1 95 0;
#X connect 97 0 4 0;
#X connect 98 0 4 0;
#X connect 99 0 89 1;
#X connect 100 0 99 0;
#X connect 101 0 99 0;
#X connect 102 0 100 0;
#X connect 102 1 101 0;
#X connect 103 0 61 0;
#X coords 0 -1 1 1 440 388 1 100 100;
#X restore 5 227 pd sequencer;
#N canvas 965 384 448 571 init 0;
#X obj 9 67 float;
#X obj 74 67 + 1;
#X floatatom 9 88 5 0 0 0 - - -, f 5;
#X obj 9 29 tgl 15 0 empty empty empty 17 7 0 10 -262144 -1 -1 127
127;
#X obj 58 107 + 1;
#X obj 9 108 mod 20;
#X obj 9 130 route 1 2 3 4 5 6 7 8 9 10 11 12 13 14 15 16 17 18 19
20 21 22 23;
#X obj 9 159 s loadbang1;
#X obj 47 199 s loadbang3;
#X obj 29 179 s loadbang2;
#X obj 64 220 s loadbang4;
#X obj 83 239 s loadbang5;
#X obj 102 259 s loadbang6;
#X obj 120 279 s loadbang7;
#X obj 139 299 s loadbang8;
#X obj 157 319 s loadbang9;
#X obj 175 339 s loadbang10;
#X obj 194 359 s loadbang11;
#X obj 212 379 s loadbang12;
#X obj 227 399 s loadbang13;
#X obj 245 419 s loadbang14;
#X obj 263 439 s loadbang15;
#X obj 283 459 s loadbang16;
#X obj 300 479 s loadbang17;
#X obj 319 499 s loadbang18;
#X obj 337 519 s loadbang19;
#X obj 355 539 s loadbang20;
#X obj 9 9 loadbang;
#X obj 9 46 metro 3000;
#X text 70 8 load radio progressivly into buffer when pd starting;
#X connect 0 0 1 0;
#X connect 0 0 2 0;
#X connect 1 0 0 1;
#X connect 2 0 5 0;
#X connect 3 0 28 0;
#X connect 4 0 5 1;
#X connect 5 0 6 0;
#X connect 6 0 7 0;
#X connect 6 1 9 0;
#X connect 6 2 8 0;
#X connect 6 3 10 0;
#X connect 6 4 11 0;
#X connect 6 5 12 0;
#X connect 6 6 13 0;
#X connect 6 7 14 0;
#X connect 6 8 15 0;
#X connect 6 9 16 0;
#X connect 6 10 17 0;
#X connect 6 11 18 0;
#X connect 6 12 19 0;
#X connect 6 13 20 0;
#X connect 6 14 21 0;
#X connect 6 15 22 0;
#X connect 6 16 23 0;
#X connect 6 17 24 0;
#X connect 6 18 25 0;
#X connect 6 19 26 0;
#X connect 27 0 3 0;
#X connect 28 0 0 0;
#X restore 5 621 pd init;
#N canvas 240 176 699 727 radio 0;
#X obj 38 -969 r france;
#X obj 38 -763 r espagne;
#X obj 38 -531 r maroc;
#X obj 183 -823 dac~;
#X obj 191 -618 dac~;
#X obj 191 -386 dac~;
#X obj 191 1160 dac~;
#X obj 191 1366 dac~;
#X obj 191 1573 dac~;
#X obj 191 -128 dac~;
#X obj 191 103 dac~;
#X obj 191 335 dac~;
#X obj 38 -273 r mauritanie;
#X obj 38 -41 r senegal;
#X obj 38 191 r mexique;
#X obj 191 543 dac~;
#X obj 191 748 dac~;
#X obj 191 954 dac~;
#X obj 38 397 r usa;
#X obj 38 603 r indonesie;
#X obj 38 809 r malaysie;
#X obj 38 1015 r thailande;
#X obj 38 1221 r birmanie;
#X obj 38 1428 r inde;
#X msg 7 2028 open http://149.13.0.80/bgradio128;
#X obj 191 1779 dac~;
#X obj 191 1985 dac~;
#X obj 191 2191 dac~;
#X msg 7 2234 open http://185.13.37.111:8000/mpd.mp3;
#X msg 7 2646 open http://149.13.0.80/bgradio128;
#X obj 191 2397 dac~;
#X obj 191 2603 dac~;
#X obj 191 2809 dac~;
#X msg 7 2851 open http://185.13.37.111:8000/mpd.mp3;
#X obj 191 3014 dac~;
#X obj 191 3220 dac~;
#X obj 38 1634 r nepal;
#X obj 38 1840 r georgie;
#X obj 38 2046 r turquie;
#X obj 38 2252 r bulgarie;
#X obj 38 2458 r serbie;
#X obj 38 2664 r hongrie;
#X obj 38 2869 r autriche;
#X obj 38 3075 r allemagne;
#X msg 7 -575 open http://broadcast.ice.infomaniak.ch/aswat-high.mp3?_=0.60159463323795
;
#X msg 7 -343 open http://ample-04.radiojar.com/3wfmfwzst5quv?tok=07706757WrokvNe1rciR2lNEp1QxnLltGX8IWCJ3rmCKAAAAAAAAAAAAAAAAAA%3D&rj-token=AAABbQCD77QzQQ5WvX0bkvEQHOfSLbo38opCSKUbGy_W1Gb1ZBvTfg&rj-ttl=5
;
#X msg 7 -85 open http://listen.senemultimedia.net/proxy/radiothiossane?mp=/1
\;;
#X msg 7 147 open http://imer-edge1.cdnstream.com/1500_64?aw_0_1st.playerid=esPlayer&aw_0_1st.skey=1567671653
;
#X msg 7 379 open http://s4.radioboss.fm:8101/stream;
#X msg 7 1203 open http://185.13.37.111:8000/mpd.mp3 \;;
#X msg 7 1616 open http://radionepal.gov.np:40100/stream;
#X msg 7 585 open http://radionepal.gov.np:40100/stream;
#X msg 7 1822 open http://149.13.0.80/bgradio128;
#X msg 7 2440 open http://149.13.0.80/bgradio128;
#X msg 7 3057 open http://185.13.37.111:8000/mpd.mp3;
#X obj 7 -951 module-webradio;
#X obj 7 -1005 r loadbang1;
#X obj 7 -799 r loadbang2;
#X obj 7 -593 r loadbang3;
#X obj 7 -361 r loadbang4;
#X obj 7 -103 r loadbang5;
#X obj 7 129 r loadbang6;
#X obj 7 361 r loadbang7;
#X obj 7 567 r loadban8;
#X obj 7 773 r loadbang9;
#X obj 7 979 r loadbang10;
#X obj 7 1185 r loadbang11;
#X obj 7 1392 r loadbang12;
#X obj 7 1598 r loadbang13;
#X obj 7 1804 r loadbang14;
#X obj 7 2010 r loadbang15;
#X obj 7 2216 r loadbang16;
#X obj 7 2422 r loadbang17;
#X obj 7 2628 r loadbang18;
#X obj 7 2834 r loadbang19;
#X obj 7 3039 r loadbang20;
#X obj 7 -1020 bng 15 250 50 0 empty empty empty 17 7 0 10 -262144
-1 -1;
#X obj 7 -814 bng 15 250 50 0 empty empty empty 17 7 0 10 -262144 -1
-1;
#X obj 7 -608 bng 15 250 50 0 empty empty empty 17 7 0 10 -262144 -1
-1;
#X obj 7 -376 bng 15 250 50 0 empty empty empty 17 7 0 10 -262144 -1
-1;
#X obj 7 346 bng 15 250 50 0 empty empty empty 17 7 0 10 -262144 -1
-1;
#X obj 7 552 bng 15 250 50 0 empty empty empty 17 7 0 10 -262144 -1
-1;
#X obj 7 758 bng 15 250 50 0 empty empty empty 17 7 0 10 -262144 -1
-1;
#X obj 7 964 bng 15 250 50 0 empty empty empty 17 7 0 10 -262144 -1
-1;
#X obj 7 -1020 bng 15 250 50 0 empty empty empty 17 7 0 10 -262144
-1 -1;
#X obj 7 -814 bng 15 250 50 0 empty empty empty 17 7 0 10 -262144 -1
-1;
#X obj 7 -608 bng 15 250 50 0 empty empty empty 17 7 0 10 -262144 -1
-1;
#X obj 7 -376 bng 15 250 50 0 empty empty empty 17 7 0 10 -262144 -1
-1;
#X obj 7 1583 bng 15 250 50 0 empty empty empty 17 7 0 10 -262144 -1
-1;
#X obj 7 1789 bng 15 250 50 0 empty empty empty 17 7 0 10 -262144 -1
-1;
#X obj 7 1995 bng 15 250 50 0 empty empty empty 17 7 0 10 -262144 -1
-1;
#X obj 7 2201 bng 15 250 50 0 empty empty empty 17 7 0 10 -262144 -1
-1;
#X obj 7 2819 bng 15 250 50 0 empty empty empty 17 7 0 10 -262144 -1
-1;
#X obj 7 3024 bng 15 250 50 0 empty empty empty 17 7 0 10 -262144 -1
-1;
#X obj 7 -118 bng 15 250 50 0 empty empty empty 17 7 0 10 -262144 -1
-1;
#X obj 7 1170 bng 15 250 50 0 empty empty empty 17 7 0 10 -262144 -1
-1;
#X obj 7 -118 bng 15 250 50 0 empty empty empty 17 7 0 10 -262144 -1
-1;
#X obj 7 2407 bng 15 250 50 0 empty empty empty 17 7 0 10 -262144 -1
-1;
#X obj 7 114 bng 15 250 50 0 empty empty empty 17 7 0 10 -262144 -1
-1;
#X obj 7 1376 bng 15 250 50 0 empty empty empty 17 7 0 10 -262144 -1
-1;
#X obj 7 114 bng 15 250 50 0 empty empty empty 17 7 0 10 -262144 -1
-1;
#X obj 7 2613 bng 15 250 50 0 empty empty empty 17 7 0 10 -262144 -1
-1;
#X msg 7 997 open http://prdonline.prd.go.th:8202/;
#X msg 7 1410 open http://prdonline.prd.go.th:8202/;
#X msg 7 -987 open http://direct.franceinfo.fr/live/franceinfo-midfi.mp3
;
#X msg 7 791 open http://direct.franceinfo.fr/live/franceinfo-midfi.mp3
;
#X msg 7 -781 open http://rne.rtveradio.cires21.com/rne_hc.mp3;
#X obj 7 -513 module-webradio;
#X obj 7 -745 module-webradio;
#X obj 7 1033 module-webradio;
#X obj 7 1239 module-webradio;
#X obj 7 1446 module-webradio;
#X obj 7 -255 module-webradio;
#X obj 7 -23 module-webradio;
#X obj 7 209 module-webradio;
#X obj 7 415 module-webradio;
#X obj 7 621 module-webradio;
#X obj 7 827 module-webradio;
#X obj 7 1652 module-webradio;
#X obj 7 1858 module-webradio;
#X obj 7 2064 module-webradio;
#X obj 7 2270 module-webradio;
#X obj 7 2476 module-webradio;
#X obj 7 2682 module-webradio;
#X obj 7 2887 module-webradio;
#X obj 7 3093 module-webradio;
#X text 273 -937 nationale radio #1 name:;
#X text 273 -927 nationale radio #1 URL:;
#X text 273 -907 nationale radio #2 name:;
#X text 273 -897 nationale radio #2 URL:;
#X text 273 -877 alternative radio #1 name:;
#X text 273 -867 alternative radio #1 URL:;
#X text 273 -847 alternative radio #2 name:;
#X text 273 -837 alternative radio #2 URL:;
#X text 273 -956 FRANCE;
#X text 273 -731 nationale radio #1 name:;
#X text 273 -721 nationale radio #1 URL:;
#X text 273 -701 nationale radio #2 name:;
#X text 273 -691 nationale radio #2 URL:;
#X text 273 -671 alternative radio #1 name:;
#X text 273 -661 alternative radio #1 URL:;
#X text 273 -641 alternative radio #2 name:;
#X text 273 -631 alternative radio #2 URL:;
#X text 273 -750 SPAIN;
#X text 273 -501 nationale radio #1 name:;
#X text 273 -491 nationale radio #1 URL:;
#X text 273 -471 nationale radio #2 name:;
#X text 273 -461 nationale radio #2 URL:;
#X text 273 -441 alternative radio #1 name:;
#X text 273 -431 alternative radio #1 URL:;
#X text 273 -411 alternative radio #2 name:;
#X text 273 -401 alternative radio #2 URL:;
#X text 273 -520 MORROCO;
#X text 273 -241 nationale radio #1 name:;
#X text 273 -231 nationale radio #1 URL:;
#X text 273 -211 nationale radio #2 name:;
#X text 273 -201 nationale radio #2 URL:;
#X text 273 -181 alternative radio #1 name:;
#X text 273 -171 alternative radio #1 URL:;
#X text 273 -151 alternative radio #2 name:;
#X text 273 -141 alternative radio #2 URL:;
#X text 273 -260 MAURITANIA;
#X text 273 -11 nationale radio #1 name:;
#X text 273 -1 nationale radio #1 URL:;
#X text 273 19 nationale radio #2 name:;
#X text 273 29 nationale radio #2 URL:;
#X text 273 49 alternative radio #1 name:;
#X text 273 59 alternative radio #1 URL:;
#X text 273 79 alternative radio #2 name:;
#X text 273 89 alternative radio #2 URL:;
#X text 273 -30 SENEGAL;
#X text 273 223 nationale radio #1 name:;
#X text 273 233 nationale radio #1 URL:;
#X text 273 253 nationale radio #2 name:;
#X text 273 263 nationale radio #2 URL:;
#X text 273 283 alternative radio #1 name:;
#X text 273 293 alternative radio #1 URL:;
#X text 273 313 alternative radio #2 name:;
#X text 273 323 alternative radio #2 URL:;
#X text 273 204 MEXIQUE;
#X text 273 430 nationale radio #1 name:;
#X text 273 440 nationale radio #1 URL:;
#X text 273 460 nationale radio #2 name:;
#X text 273 470 nationale radio #2 URL:;
#X text 273 490 alternative radio #1 name:;
#X text 273 500 alternative radio #1 URL:;
#X text 273 520 alternative radio #2 name:;
#X text 273 530 alternative radio #2 URL:;
#X text 273 411 USA;
#X text 273 635 nationale radio #1 name:;
#X text 273 645 nationale radio #1 URL:;
#X text 273 665 nationale radio #2 name:;
#X text 273 675 nationale radio #2 URL:;
#X text 273 695 alternative radio #1 name:;
#X text 273 705 alternative radio #1 URL:;
#X text 273 725 alternative radio #2 name:;
#X text 273 735 alternative radio #2 URL:;
#X text 273 616 INDONESIA;
#X text 273 841 nationale radio #1 name:;
#X text 273 851 nationale radio #1 URL:;
#X text 273 871 nationale radio #2 name:;
#X text 273 881 nationale radio #2 URL:;
#X text 273 901 alternative radio #1 name:;
#X text 273 911 alternative radio #1 URL:;
#X text 273 931 alternative radio #2 name:;
#X text 273 941 alternative radio #2 URL:;
#X text 273 822 MALAYSIA;
#X text 273 1051 nationale radio #1 name:;
#X text 273 1061 nationale radio #1 URL:;
#X text 273 1081 nationale radio #2 name:;
#X text 273 1091 nationale radio #2 URL:;
#X text 273 1111 alternative radio #1 name:;
#X text 273 1121 alternative radio #1 URL:;
#X text 273 1141 alternative radio #2 name:;
#X text 273 1151 alternative radio #2 URL:;
#X text 273 1032 THAILANDIA;
#X text 273 1251 nationale radio #1 name:;
#X text 273 1261 nationale radio #1 URL:;
#X text 273 1281 nationale radio #2 name:;
#X text 273 1291 nationale radio #2 URL:;
#X text 273 1311 alternative radio #1 name:;
#X text 273 1321 alternative radio #1 URL:;
#X text 273 1341 alternative radio #2 name:;
#X text 273 1351 alternative radio #2 URL:;
#X text 273 1232 MYANMAR;
#X text 273 1461 nationale radio #1 name:;
#X text 273 1471 nationale radio #1 URL:;
#X text 273 1491 nationale radio #2 name:;
#X text 273 1501 nationale radio #2 URL:;
#X text 273 1521 alternative radio #1 name:;
#X text 273 1531 alternative radio #1 URL:;
#X text 273 1551 alternative radio #2 name:;
#X text 273 1561 alternative radio #2 URL:;
#X text 274 1442 INDIA;
#X text 273 1666 nationale radio #1 name:;
#X text 273 1676 nationale radio #1 URL:;
#X text 273 1696 nationale radio #2 name:;
#X text 273 1706 nationale radio #2 URL:;
#X text 273 1726 alternative radio #1 name:;
#X text 273 1736 alternative radio #1 URL:;
#X text 273 1756 alternative radio #2 name:;
#X text 273 1766 alternative radio #2 URL:;
#X text 274 1647 NEPAL;
#X text 273 1872 nationale radio #1 name:;
#X text 273 1882 nationale radio #1 URL:;
#X text 273 1902 nationale radio #2 name:;
#X text 273 1912 nationale radio #2 URL:;
#X text 273 1932 alternative radio #1 name:;
#X text 273 1942 alternative radio #1 URL:;
#X text 273 1962 alternative radio #2 name:;
#X text 273 1972 alternative radio #2 URL:;
#X text 274 1853 GEORGIA;
#X text 273 2078 nationale radio #1 name:;
#X text 273 2088 nationale radio #1 URL:;
#X text 273 2108 nationale radio #2 name:;
#X text 273 2118 nationale radio #2 URL:;
#X text 273 2138 alternative radio #1 name:;
#X text 273 2148 alternative radio #1 URL:;
#X text 273 2168 alternative radio #2 name:;
#X text 273 2178 alternative radio #2 URL:;
#X text 275 2060 TURKEY;
#X text 273 2283 nationale radio #1 name:;
#X text 273 2293 nationale radio #1 URL:;
#X text 273 2313 nationale radio #2 name:;
#X text 273 2323 nationale radio #2 URL:;
#X text 273 2343 alternative radio #1 name:;
#X text 273 2353 alternative radio #1 URL:;
#X text 273 2373 alternative radio #2 name:;
#X text 273 2383 alternative radio #2 URL:;
#X text 275 2265 BULGARIA;
#X text 273 2490 nationale radio #1 name:;
#X text 273 2500 nationale radio #1 URL:;
#X text 273 2520 nationale radio #2 name:;
#X text 273 2530 nationale radio #2 URL:;
#X text 273 2550 alternative radio #1 name:;
#X text 273 2560 alternative radio #1 URL:;
#X text 273 2580 alternative radio #2 name:;
#X text 273 2590 alternative radio #2 URL:;
#X text 275 2472 SERBIA;
#X text 273 2695 nationale radio #1 name:;
#X text 273 2705 nationale radio #1 URL:;
#X text 273 2725 nationale radio #2 name:;
#X text 273 2735 nationale radio #2 URL:;
#X text 273 2755 alternative radio #1 name:;
#X text 273 2765 alternative radio #1 URL:;
#X text 273 2785 alternative radio #2 name:;
#X text 273 2795 alternative radio #2 URL:;
#X text 275 2677 HONGARY;
#X text 273 2902 nationale radio #1 name:;
#X text 273 2912 nationale radio #1 URL:;
#X text 273 2932 nationale radio #2 name:;
#X text 273 2942 nationale radio #2 URL:;
#X text 273 2962 alternative radio #1 name:;
#X text 273 2972 alternative radio #1 URL:;
#X text 273 2992 alternative radio #2 name:;
#X text 273 3002 alternative radio #2 URL:;
#X text 275 2884 AUSTRIA;
#X text 273 3106 nationale radio #1 name:;
#X text 273 3116 nationale radio #1 URL:;
#X text 273 3136 nationale radio #2 name:;
#X text 273 3146 nationale radio #2 URL:;
#X text 273 3166 alternative radio #1 name:;
#X text 273 3176 alternative radio #1 URL:;
#X text 273 3196 alternative radio #2 name:;
#X text 273 3206 alternative radio #2 URL:;
#X text 275 3088 GERMANY;
#X connect 0 0 55 1;
#X connect 1 0 108 1;
#X connect 2 0 107 1;
#X connect 12 0 112 1;
#X connect 13 0 113 1;
#X connect 14 0 114 1;
#X connect 18 0 115 1;
#X connect 19 0 116 1;
#X connect 20 0 117 1;
#X connect 21 0 109 1;
#X connect 22 0 110 1;
#X connect 23 0 111 1;
#X connect 24 0 120 0;
#X connect 28 0 121 0;
#X connect 29 0 123 0;
#X connect 33 0 124 0;
#X connect 36 0 118 1;
#X connect 37 0 119 1;
#X connect 38 0 120 1;
#X connect 39 0 121 1;
#X connect 40 0 122 1;
#X connect 41 0 123 1;
#X connect 42 0 124 1;
#X connect 43 0 125 1;
#X connect 44 0 107 0;
#X connect 45 0 112 0;
#X connect 46 0 113 0;
#X connect 47 0 114 0;
#X connect 48 0 115 0;
#X connect 49 0 110 0;
#X connect 50 0 118 0;
#X connect 51 0 116 0;
#X connect 52 0 119 0;
#X connect 53 0 122 0;
#X connect 54 0 125 0;
#X connect 55 0 104 0;
#X connect 55 1 3 0;
#X connect 55 2 3 1;
#X connect 56 0 104 0;
#X connect 56 0 76 0;
#X connect 57 0 77 0;
#X connect 57 0 106 0;
#X connect 58 0 44 0;
#X connect 58 0 78 0;
#X connect 59 0 45 0;
#X connect 59 0 79 0;
#X connect 60 0 46 0;
#X connect 60 0 94 0;
#X connect 61 0 47 0;
#X connect 61 0 98 0;
#X connect 62 0 48 0;
#X connect 62 0 80 0;
#X connect 63 0 51 0;
#X connect 63 0 81 0;
#X connect 64 0 82 0;
#X connect 64 0 105 0;
#X connect 65 0 102 0;
#X connect 65 0 83 0;
#X connect 66 0 49 0;
#X connect 66 0 95 0;
#X connect 67 0 103 0;
#X connect 67 0 99 0;
#X connect 68 0 50 0;
#X connect 68 0 88 0;
#X connect 69 0 52 0;
#X connect 69 0 89 0;
#X connect 70 0 24 0;
#X connect 70 0 90 0;
#X connect 71 0 28 0;
#X connect 71 0 91 0;
#X connect 72 0 53 0;
#X connect 72 0 97 0;
#X connect 73 0 29 0;
#X connect 73 0 101 0;
#X connect 74 0 33 0;
#X connect 74 0 92 0;
#X connect 75 0 54 0;
#X connect 75 0 93 0;
#X connect 102 0 109 0;
#X connect 103 0 111 0;
#X connect 104 0 55 0;
#X connect 105 0 117 0;
#X connect 106 0 108 0;
#X connect 107 0 44 0;
#X connect 107 1 5 0;
#X connect 107 2 5 1;
#X connect 108 0 106 0;
#X connect 108 1 4 0;
#X connect 108 2 4 1;
#X connect 109 1 6 0;
#X connect 109 2 6 1;
#X connect 110 1 7 0;
#X connect 110 2 7 1;
#X connect 111 1 8 0;
#X connect 111 2 8 1;
#X connect 112 0 45 0;
#X connect 112 1 9 0;
#X connect 112 2 9 1;
#X connect 113 0 46 0;
#X connect 113 1 10 0;
#X connect 113 2 10 1;
#X connect 114 0 47 0;
#X connect 114 1 11 0;
#X connect 114 2 11 1;
#X connect 115 1 15 0;
#X connect 115 2 15 1;
#X connect 116 1 16 0;
#X connect 116 2 16 1;
#X connect 117 1 17 0;
#X connect 117 2 17 1;
#X connect 118 0 50 0;
#X connect 118 1 25 0;
#X connect 118 2 25 1;
#X connect 119 0 52 0;
#X connect 119 1 26 0;
#X connect 119 2 26 1;
#X connect 120 0 24 0;
#X connect 120 1 27 0;
#X connect 120 2 27 1;
#X connect 121 0 28 0;
#X connect 121 1 30 0;
#X connect 121 2 30 1;
#X connect 122 0 53 0;
#X connect 122 1 31 0;
#X connect 122 2 31 1;
#X connect 123 0 29 0;
#X connect 123 1 32 0;
#X connect 123 2 32 1;
#X connect 124 1 34 0;
#X connect 124 2 34 1;
#X connect 125 1 35 0;
#X connect 125 2 35 1;
#X restore 226 620 pd radio;
#N canvas 654 447 450 300 presets 0;
#X obj 37 189 s envellope-preset;
#X obj 197 189 s filter-preset;
#X msg 37 167 85 15 1.6 0.6 105 167;
#X msg 37 147 85 15 1.6 0.6 105 167;
#X msg 37 127 85 15 1.6 0.6 105 167;
#X msg 37 107 85 15 1.6 0.6 105 167;
#X msg 197 147 1000 1 0.025;
#X msg 197 167 37 1.492 0.414;
#X msg 197 107 1000 1 0.025;
#X msg 197 127 37 1.492 0.414;
#X text 35 29 1 velocity;
#X text 35 39 2 attack;
#X text 35 49 3 decay;
#X text 35 59 4 sustain;
#X text 35 69 5 realease;
#X text 35 79 6 duration;
#X text 192 29 1 cutoff;
#X text 192 39 2 resonnance;
#X text 192 49 3 env-filter;
#X text 192 19 filter parameters;
#X text 35 19 envelloppe parameters;
#X connect 2 0 0 0;
#X connect 3 0 0 0;
#X connect 4 0 0 0;
#X connect 5 0 0 0;
#X connect 6 0 1 0;
#X connect 7 0 1 0;
#X connect 8 0 1 0;
#X connect 9 0 1 0;
#X restore 5 195 pd presets;
#X text 71 194 envellope presets;
#X obj 6 5 cnv 15 438 50 empty empty RADIO_SEQUENCER 10 20 1 20 -154034
-66577 0;
#X text 16 35 Web-radio sequencer for playing with live radio streaming
;
#N canvas 186 188 450 72 TODO 0;
#X text 25 15 rechercher les URLs correspondante au pays mentionnés
;
#X text 25 25 faire attention au format des radio...;
#X restore 5 642 pd TODO;
#N canvas 0 89 450 92 credit 0;
#X text 43 20 made by FANCHOVITCH at LA BALEINE \, QUIMPER during the
CORRUPTION DU SIGNAL workshop organized by LES PORTES LOGIQUES. september
2019;
#X restore 226 641 pd credit;
#X text 54 621 load stream into buffer;
#X text 285 619 radio modules;
