#N canvas 0 87 1920 993 10;
#X obj -597 315 *~ 0;
#X obj -556 315 *~ 0;
#X msg -527 121 play;
#X msg -432 122 pause;
#X obj 215 -154 loadbang;
#X msg 228 -118 \; pd dsp 1 \;;
#X msg -613 109 open \$1;
#X obj -613 81 openpanel;
#X obj -613 49 bng 25 250 50 0 empty empty empty 17 7 0 10 -4032 -1
-1;
#X msg -473 122 stop;
#X msg -547 56 open http://www.fro.at:8008/fro-64.ogg.m3u;
#X msg 215 -82 0.8;
#X obj -517 315 *~ 0;
#X obj -476 315 *~ 0;
#X msg -527 79 open http://wnycam.streamguys.com;
#X msg -344 187 tick 100;
#X text -269 176 send cache \, length output every X ticks;
#X text -271 189 "tick 1" sends out every single dsp cycle;
#X text -457 -12 readanysf~ by August Black;
#X text -455 23 august@alien.mur.at;
#X text -453 9 please send comments \, suggest \, bugs \, donations
->;
#X obj -523 -127 inlet;
#X obj 108 146 hsl 116 15 0 2 0 0 empty empty speed 2 8 0 10 -86277
-257985 -257985 5750 1;
#X obj 235 146 hsl 116 15 0 1 0 0 empty empty volume 2 8 0 10 -86277
-257985 -257985 9200 1;
#X msg 105 -67 speed \$1;
#X obj 105 128 bng 15 250 50 0 empty empty normal-speed 17 7 0 10 -257985
-86277 -86853;
#X msg 75 -41 1;
#X obj 46 -66 loadbang;
#X obj 305 128 bng 15 250 50 0 empty empty pause 17 7 0 10 -257985
-86277 -86853;
#X obj 260 128 bng 15 250 50 0 empty empty stop 17 7 0 10 -257985 -86277
-86853;
#X floatatom 106 167 5 0 0 3 sample - -, f 5;
#X floatatom 253 167 5 0 0 3 length - -, f 5;
#X floatatom 299 168 5 0 0 3 ready - -, f 5;
#X floatatom 156 167 5 0 0 3 cache - -, f 5;
#X floatatom 207 167 5 0 0 3 pos - -, f 5;
#X obj 206 67 inlet;
#X obj 282 68 inlet;
#X obj 243 68 inlet;
#X obj 321 69 inlet;
#X obj -236 80 route ready samplerate lenght cache float bang;
#X floatatom 775 276 5 0 0 0 - - -, f 5;
#X floatatom 810 277 5 0 0 0 - - -, f 5;
#X floatatom 915 277 5 0 0 0 - - -, f 5;
#X floatatom 950 277 5 0 0 0 - - -, f 5;
#X obj 745 350 diy-adsr~ 5 200 0.25 1000;
#X obj 561 606 vcf~;
#X msg 523 483 \$1 50;
#X obj 523 507 line~;
#X obj 639 635 *~;
#X msg 722 576 \$1 50;
#X obj 722 600 line~;
#X obj 674 454 *~;
#X obj 571 557 +~;
#X msg 613 401 \$1 50;
#X obj 615 436 line~;
#X obj 646 683 *~;
#X obj 628 525 *~ 10000;
#X obj 628 501 *~;
#N canvas 0 22 450 300 clipping 0;
#X obj 45 144 *~;
#X obj 45 165 +~ 27;
#X obj 105 132 *~;
#X obj 105 153 *~ 9;
#X obj 27 187 *~;
#X obj 27 222 /~;
#X obj 106 176 +~ 27;
#X obj 27 245 outlet~;
#X obj 27 72 clip~ -3 3;
#X obj 27 49 inlet~;
#X text 28 20 tanh(x) ~= x*(27+x*x) / (27+9*x*x);
#X connect 0 0 1 0;
#X connect 1 0 4 1;
#X connect 2 0 3 0;
#X connect 3 0 6 0;
#X connect 4 0 5 0;
#X connect 5 0 7 0;
#X connect 6 0 5 1;
#X connect 8 0 4 0;
#X connect 8 0 0 0;
#X connect 8 0 0 1;
#X connect 8 0 2 0;
#X connect 8 0 2 1;
#X connect 9 0 8 0;
#X restore 641 660 pd clipping;
#X obj 639 472 *~;
#X text 675 94 synth settings:;
#X text 659 203 envelope settings:;
#X text 516 588 filter;
#X text 670 687 VCA = multiply the final signal by the envelope;
#X text 873 574 envelope to filter: we apply some exponential scaling
to make the range more responsive to lower frequencies.;
#X text 512 288 here we strip the velocity;
#X text 525 303 from the note value;
#X text 904 346 click in here to see our final;
#X text 903 361 patch created as an abstraction;
#X obj 471 224 s \$0-note;
#X obj 760 380 env~;
#X floatatom 826 389 5 0 0 0 - - -, f 5;
#X obj 479 196 makenote 127 1000;
#X msg 453 153 1;
#X obj 213 111 bng 15 250 50 0 empty empty play 17 7 0 10 -258113 -257985
-86853;
#X obj 827 411 > 0;
#X obj 822 435 sel 0 1;
#X obj 810 487 bng 15 250 50 0 empty empty empty 17 7 0 10 -262144
-1 -1;
#X obj 809 463 once;
#X obj 489 -90 inlet;
#X obj 677 -88 inlet;
#X obj 674 -46 unpack f f f;
#X text 500 -114 vadsr;
#X text 696 -112 filter;
#X obj 407 302 > 0;
#X obj 402 326 sel 0 1;
#X obj 378 353 once;
#X obj 376 390 outlet;
#X obj 442 -89 inlet;
#X obj 579 -153 r envellope;
#X obj 621 -133 r filter;
#X obj 108 203 hsl 240 15 0 127 0 0 empty empty empty -2 -8 0 10 -262144
-258113 -1 17201 1;
#X obj 306 105 tgl 15 0 empty empty empty 17 7 0 10 -262144 -1 -1 1
1;
#X obj 526 4 unpack f f f f f f;
#X obj -593 228 readanysf~ 4 32 64;
#X obj 74 380 hsl 128 8 0.1 30 1 1 empty empty lfo 132 5 0 8 -262144
-1 -1 5001 1;
#X obj 74 391 hsl 128 8 0 0.5 0 1 empty empty dp 132 5 0 8 -262144
-1 -1 9922 1;
#X obj 243 525 osc~;
#X obj 248 562 *~;
#X obj 641 763 outlet~;
#X obj 766 764 outlet~;
#N canvas 0 0 450 300 pan1 0;
#X obj 297 51 inlet~;
#X obj 256 225 outlet~;
#X obj 336 218 outlet~;
#X obj 251 149 *~;
#X obj 323 154 *~;
#X obj 160 42 clip~ 0 1;
#X obj 120 15 inlet~;
#X obj 208 75 *~ -1;
#X obj 276 122 +~ 1;
#X obj 335 113 *~ -1;
#X connect 0 0 3 0;
#X connect 0 0 4 1;
#X connect 3 0 1 0;
#X connect 4 0 2 0;
#X connect 5 0 7 0;
#X connect 6 0 5 0;
#X connect 7 0 8 0;
#X connect 7 0 9 0;
#X connect 8 0 3 1;
#X connect 9 0 4 0;
#X restore 240 689 pd pan1;
#X obj 245 602 +~ 0.5;
#X obj 810 -43 unpack f f;
#X obj 767 33 expr ($f1 / 127) * 30;
#X obj 917 35 / 256;
#X obj 811 -102 inlet;
#X obj 860 -71 r pan;
#X obj 1033 -29 random 127;
#X obj 1011 -83 r bangpan;
#X obj 962 -28 random 2;
#X connect 0 0 45 0;
#X connect 1 0 45 0;
#X connect 2 0 94 0;
#X connect 3 0 94 0;
#X connect 4 0 11 0;
#X connect 4 0 5 0;
#X connect 6 0 94 0;
#X connect 7 0 6 0;
#X connect 8 0 7 0;
#X connect 9 0 94 0;
#X connect 10 0 94 0;
#X connect 11 0 23 0;
#X connect 14 0 94 0;
#X connect 15 0 94 0;
#X connect 21 0 94 0;
#X connect 22 0 24 0;
#X connect 23 0 0 1;
#X connect 23 0 1 1;
#X connect 23 0 12 1;
#X connect 23 0 13 1;
#X connect 24 0 94 0;
#X connect 25 0 26 0;
#X connect 26 0 22 0;
#X connect 27 0 26 0;
#X connect 28 0 3 0;
#X connect 29 0 9 0;
#X connect 33 0 84 0;
#X connect 35 0 74 0;
#X connect 36 0 28 0;
#X connect 37 0 29 0;
#X connect 38 0 23 0;
#X connect 39 0 32 0;
#X connect 39 1 30 0;
#X connect 39 2 31 0;
#X connect 39 3 33 0;
#X connect 39 4 34 0;
#X connect 40 0 44 1;
#X connect 41 0 44 2;
#X connect 42 0 44 3;
#X connect 43 0 44 4;
#X connect 44 0 55 1;
#X connect 44 0 51 0;
#X connect 44 0 51 1;
#X connect 44 0 70 0;
#X connect 45 0 48 0;
#X connect 46 0 47 0;
#X connect 47 0 52 0;
#X connect 48 0 58 0;
#X connect 49 0 50 0;
#X connect 50 0 48 1;
#X connect 51 0 59 1;
#X connect 52 0 45 1;
#X connect 53 0 54 0;
#X connect 54 0 59 0;
#X connect 55 0 101 1;
#X connect 56 0 52 1;
#X connect 57 0 56 0;
#X connect 58 0 55 0;
#X connect 59 0 57 1;
#X connect 59 0 57 0;
#X connect 70 0 71 0;
#X connect 71 0 75 0;
#X connect 71 0 91 0;
#X connect 72 0 69 0;
#X connect 72 1 44 0;
#X connect 73 0 72 0;
#X connect 74 0 73 0;
#X connect 74 0 2 0;
#X connect 75 0 76 0;
#X connect 76 0 78 0;
#X connect 76 1 78 1;
#X connect 77 0 28 0;
#X connect 78 0 77 0;
#X connect 79 0 93 0;
#X connect 80 0 81 0;
#X connect 81 0 46 0;
#X connect 81 1 45 2;
#X connect 81 1 49 0;
#X connect 81 2 53 0;
#X connect 84 0 85 0;
#X connect 84 0 92 0;
#X connect 85 0 86 0;
#X connect 85 1 86 1;
#X connect 86 0 87 0;
#X connect 88 0 22 0;
#X connect 89 0 93 0;
#X connect 90 0 81 0;
#X connect 93 0 72 1;
#X connect 93 1 72 2;
#X connect 93 2 40 0;
#X connect 93 3 41 0;
#X connect 93 4 42 0;
#X connect 93 5 43 0;
#X connect 94 0 0 0;
#X connect 94 1 1 0;
#X connect 94 2 12 0;
#X connect 94 3 13 0;
#X connect 94 4 39 0;
#X connect 95 0 97 0;
#X connect 96 0 98 1;
#X connect 97 0 98 0;
#X connect 98 0 102 0;
#X connect 101 0 99 0;
#X connect 101 1 100 0;
#X connect 102 0 101 0;
#X connect 104 0 95 0;
#X connect 105 0 96 0;
#X connect 106 0 103 0;
#X connect 107 0 103 0;
#X connect 108 0 105 0;
#X connect 109 0 108 0;
#X connect 109 0 110 0;
#X connect 110 0 104 0;
#X coords 0 -1 1 1 256 127 1 100 100;
